<svg xmlns="http://www.w3.org/2000/svg" xmlns:xlink="http://www.w3.org/1999/xlink" fill="none" version="1.1" width="120" height="119" viewBox="0 0 120 119"><g><g><rect x="0" y="0" width="120" height="119" rx="0" fill="#F0F0F0" fill-opacity="1"/></g><g><path d="M8.0957,54.11328C9.13867,54.98633,10.36328,56.24023,10.88477,57.18945L12.003910000000001,56.28125C11.423829999999999,55.41406,10.18164,54.20117,9.12109,53.38086L8.0957,54.11328ZM15.02734,53.31055C14.59375,54.89844,13.83789,56.48047,12.86523,57.64062C13.1875,57.82227,13.767579999999999,58.21484,14.01953,58.43164C14.42969,57.88086,14.82812,57.18945,15.18555,56.42188L17.851599999999998,56.42188L17.851599999999998,59.29883L12.75977,59.29883L12.75977,60.5L16.017580000000002,60.5C15.70703,62.8906,14.97461,64.625,12.27344,65.5859C12.56055,65.8379,12.95312,66.3418,13.09961,66.6934C16.12305,65.4922,17.025399999999998,63.4004,17.3652,60.5L19.2227,60.5L19.2227,64.7305C19.2227,66.1074,19.5273,66.5,20.875,66.5C21.1445,66.5,22.3691,66.5,22.6387,66.5C23.7754,66.5,24.1328,65.9258,24.2617,63.623C23.8809,63.5293,23.3242,63.3301,23.0723,63.0723C23.0195,64.9883,22.949199999999998,65.2402,22.497999999999998,65.2402C22.2461,65.2402,21.2559,65.2402,21.074199999999998,65.2402C20.6055,65.2402,20.5527,65.1875,20.5527,64.7305L20.5527,60.5L24.1152,60.5L24.1152,59.29883L19.199199999999998,59.29883L19.199199999999998,56.42188L23.3594,56.42188L23.3594,55.25L19.199199999999998,55.25L19.199199999999998,52.847656L17.851599999999998,52.847656L17.851599999999998,55.25L15.73047,55.25C15.95898,54.7168,16.1582,54.14844,16.32227,53.58008L15.02734,53.31055ZM11.517579999999999,59.75L8.00781,59.75L8.00781,61.01562L10.2168,61.01562L10.2168,66.7461C9.44336,67.1035,8.61719,67.7656,7.808594,68.5508L8.70508,69.7168C9.73047,68.6035,10.70312,67.625,11.371089999999999,67.625C11.76953,67.625,12.326170000000001,68.1875,13.0293,68.6211C14.21289,69.3242,15.70703,69.5,17.7988,69.5C19.5625,69.5,22.6035,69.4121,24.0098,69.3242C24.0273,68.9258,24.2441,68.2637,24.3848,67.9004C22.6035,68.0879,19.8672,68.2227,17.8164,68.2227C15.90625,68.2227,14.39453,68.1113,13.28125,67.4141C12.41406,66.9102,12.003910000000001,66.4766,11.517579999999999,66.4414L11.517579999999999,59.75ZM28.1816,52.806641L28.1816,56.61523L25.8262,56.61523L25.8262,57.875L28.1816,57.875L28.1816,61.70117C27.2266,61.99414,26.3477,62.2402,25.6445,62.4395L25.9844,63.7578L28.1816,63.0547L28.1816,68.0293C28.1816,68.2812,28.0938,68.3574,27.877,68.375C27.6602,68.375,26.957,68.3984,26.1836,68.3574C26.3652,68.7383,26.5293,69.2949,26.582,69.6406C27.7305,69.6406,28.4336,69.6172,28.8848,69.3887C29.3359,69.1719,29.5,68.791,29.5,68.0293L29.5,62.6211L31.5859,61.93555L31.4043,60.69922L29.5,61.29102L29.5,57.875L31.6387,57.875L31.6387,56.61523L29.5,56.61523L29.5,52.806641L28.1816,52.806641ZM39.4727,54.97461C38.8223,56.04102,37.9375,56.94336,36.912099999999995,57.66406C35.9805,56.94336,35.1836,56.04102,34.574200000000005,54.97461L39.4727,54.97461ZM32.125,53.75L32.125,54.97461L33.2793,54.97461C33.9414,56.35156,34.8262,57.42969,35.8691,58.32617C34.4688,59.16992,32.8809,59.80273,31.3516,60.17773C31.6035,60.44727,31.9258,60.95117,32.0723,61.27344C33.707,60.78711,35.3828,60.07227,36.876999999999995,59.11719C38.2832,60.08984,39.918,60.82227,41.7051,61.29102C41.8809,60.93359,42.2617,60.42969,42.5312,60.16016C40.8379,59.80273,39.291,59.1875,37.960899999999995,58.36133C39.3789,57.2832,40.5859,55.83594,41.3594,54.14844L40.5508,53.69727L40.3164,53.75L32.125,53.75ZM36.1562,60.69922L36.1562,62.2812L32.5059,62.2812L32.5059,63.5L36.1562,63.5L36.1562,65.375L31.5859,65.375L31.5859,66.5996L36.1562,66.5996L36.1562,69.7461L37.5098,69.7461L37.5098,66.5996L42.2266,66.5996L42.2266,65.375L37.5098,65.375L37.5098,63.5L40.9258,63.5L40.9258,62.2812L37.5098,62.2812L37.5098,60.69922L36.1562,60.69922ZM47.5527,61.83594L56.5352,61.83594L56.5352,66.875L47.5527,66.875L47.5527,61.83594ZM47.5527,60.5L47.5527,55.47852L56.5352,55.47852L56.5352,60.5L47.5527,60.5ZM46.1641,54.125L46.1641,69.4707L47.5527,69.4707L47.5527,68.2285L56.5352,68.2285L56.5352,69.3711L57.9766,69.3711L57.9766,54.125L46.1641,54.125ZM63.2266,54.14844C64.2168,55.02734,65.47659999999999,56.26953,66.03909999999999,57.07812L67.0293,56.10547C66.3965,55.33203,65.13669999999999,54.14844,64.16409999999999,53.28125L63.2266,54.14844ZM64.5977,69.4297L64.5977,69.4121C64.84960000000001,69.0723,65.3535,68.6914,68.3418,66.5059C68.1953,66.2246,68.00200000000001,65.668,67.9082,65.293L66.03909999999999,66.6172L66.03909999999999,58.4375L61.8262,58.4375L61.8262,59.75L64.7031,59.75L64.7031,66.5996C64.7031,67.5137,64.1465,68.1523,63.8242,68.4043C64.0762,68.6387,64.4512,69.1426,64.5977,69.4297ZM68.541,54.125L68.541,55.47852L75.6836,55.47852L75.6836,60.125L68.8809,60.125L68.8809,67.2734C68.8809,69.0723,69.5312,69.5,71.5469,69.5C71.998,69.5,75.2207,69.5,75.6836,69.5C77.6465,69.5,78.1152,68.6914,78.3145,65.668C77.916,65.5742,77.3418,65.3281,77.002,65.0703C76.9082,67.7188,76.7324,68.2051,75.6133,68.2051C74.9102,68.2051,72.1738,68.2051,71.6348,68.2051C70.4863,68.2051,70.2695,68.041,70.2695,67.291L70.2695,61.42578L75.6836,61.42578L75.6836,62.3984L77.0371,62.3984L77.0371,54.125L68.541,54.125ZM88.9492,60.5293C89.582,61.86523,90.3555,63.6348,90.6953,64.7422L91.9375,64.1855C91.5625,63.166,90.7539,61.41992,90.1035,60.13672L88.9492,60.5293ZM93.1445,52.976562L93.1445,57.125L88.252,57.125L88.252,58.42578L93.1445,58.42578L93.1445,67.9414C93.1445,68.2637,93.0215,68.375,92.6934,68.375C92.3887,68.3984,91.3809,68.3984,90.25,68.3574C90.4668,68.7383,90.6953,69.3301,90.7715,69.6934C92.2656,69.6934,93.1621,69.6406,93.707,69.4238C94.2461,69.207,94.4805,68.8086,94.4805,67.9414L94.4805,58.42578L96.2441,58.42578L96.2441,57.125L94.4805,57.125L94.4805,52.976562L93.1445,52.976562ZM83.3535,52.794922L83.3535,55.15625L80.3828,55.15625L80.3828,56.375L83.3535,56.375L83.3535,59L79.8262,59L79.8262,60.24219L87.9824,60.24219L87.9824,59L84.666,59L84.666,56.375L87.6016,56.375L87.6016,55.15625L84.666,55.15625L84.666,52.794922L83.3535,52.794922ZM79.6621,67.5957L79.8613,68.9727C82.0938,68.6094,85.2988,68.0527,88.3223,67.5195L88.252,66.1895L84.666,66.7988L84.666,63.9746L87.7656,63.9746L87.7656,62.75L84.666,62.75L84.666,60.65234L83.3535,60.65234L83.3535,62.75L80.2363,62.75L80.2363,63.9746L83.3535,63.9746L83.3535,67.0039L79.6621,67.5957ZM104.002,62L107.816,62L107.816,64.25L104.002,64.25L104.002,62ZM104.002,60.9043L104.002,59L107.816,59L107.816,60.9043L104.002,60.9043ZM104.002,65.3516L107.816,65.3516L107.816,67.4902L104.002,67.4902L104.002,65.3516ZM98.043,53.95508L98.043,55.25L104.9922,55.25C104.8633,56.06445,104.6641,56.99023,104.4883,57.74023L98.8691,57.74023L98.8691,69.7168L100.1641,69.7168L100.1641,68.75L111.76,68.75L111.76,69.7168L113.125,69.7168L113.125,57.74023L105.8711,57.74023L106.5742,55.25L114.01,55.25L114.01,53.95508L98.043,53.95508ZM100.1641,67.4902L100.1641,59L102.7598,59L102.7598,67.4902L100.1641,67.4902ZM111.76,67.4902L109.059,67.4902L109.059,59L111.76,59L111.76,67.4902Z" fill="#3D3D3D" fill-opacity="0.8299999833106995"/></g></g></svg>