<svg xmlns="http://www.w3.org/2000/svg" xmlns:xlink="http://www.w3.org/1999/xlink" fill="none" version="1.1" width="36.67486572265625" height="163.190185546875" viewBox="0 0 36.67486572265625 163.190185546875"><g transform="matrix(1,3.7247229744963306e-9,-3.7247229744963306e-9,1,3.7247229744963306e-9,0)"><g><line x1="0" y1="5.837423324584961" x2="13.013662338256836" y2="5.837423324584961" fill-opacity="0" stroke-opacity="0.5799999833106995" stroke="#D8D8D8" fill="none" stroke-width="1"/></g><g transform="matrix(1,3.7247229744963306e-9,-3.7247229744963306e-9,1,4.348556953788471e-8,0)"><line x1="0" y1="11.174846649169922" x2="13.013662338256836" y2="11.174846649169922" fill-opacity="0" stroke-opacity="0.5799999833106995" stroke="#D8D8D8" fill="none" stroke-width="1"/></g><g transform="matrix(1,3.7247229744963306e-9,-3.7247229744963306e-9,1,6.734207463417963e-8,0)"><line x1="0" y1="17.579753875732422" x2="13.013662338256836" y2="17.579753875732422" fill-opacity="0" stroke-opacity="0.5799999833106995" stroke="#D8D8D8" fill="none" stroke-width="1"/></g><g transform="matrix(1,3.7247229744963306e-9,-3.7247229744963306e-9,1,6.734207463417963e-8,0)"><line x1="0" y1="17.579753875732422" x2="13.013662338256836" y2="17.579753875732422" fill-opacity="0" stroke-opacity="0.5799999833106995" stroke="#D8D8D8" fill="none" stroke-width="1"/></g><g transform="matrix(1,3.7247229744963306e-9,-3.7247229744963306e-9,1,9.119857973047455e-8,0)"><line x1="0" y1="23.984661102294922" x2="13.013662338256836" y2="23.984661102294922" fill-opacity="0" stroke-opacity="0.5799999833106995" stroke="#D8D8D8" fill="none" stroke-width="1"/></g><g transform="matrix(1,7.449445948992661e-9,-7.449445948992661e-9,1,2.3011016965353893e-7,0)"><line x1="0" y1="30.389568328857422" x2="18.92896270751953" y2="30.389568328857422" fill-opacity="0" stroke-opacity="0.5799999833106995" stroke="#D8D8D8" fill="none" stroke-width="1"/></g><g transform="matrix(1,3.7247229744963306e-9,-3.7247229744963306e-9,1,3.7247229744963306e-9,0)"><line x1="0" y1="0.5" x2="18.92896270751953" y2="0.5" fill-opacity="0" stroke-opacity="0.5799999833106995" stroke="#D8D8D8" fill="none" stroke-width="1"/></g><g transform="matrix(1,7.449445948992661e-9,-7.449445948992661e-9,1,2.7782317984612877e-7,0)"><line x1="0" y1="36.79447555541992" x2="13.013662338256836" y2="36.79447555541992" fill-opacity="0" stroke-opacity="0.5799999833106995" stroke="#D8D8D8" fill="none" stroke-width="1"/></g><g transform="matrix(1,7.449445948992661e-9,-7.449445948992661e-9,1,3.255362184560997e-7,0)"><line x1="0" y1="43.19938659667969" x2="13.013662338256836" y2="43.19938659667969" fill-opacity="0" stroke-opacity="0.5799999833106995" stroke="#D8D8D8" fill="none" stroke-width="1"/></g><g transform="matrix(1,7.449445948992661e-9,-7.449445948992661e-9,1,3.8120137806920044e-7,0)"><line x1="0" y1="50.671775817871094" x2="13.013662338256836" y2="50.671775817871094" fill-opacity="0" stroke-opacity="0.5799999833106995" stroke="#D8D8D8" fill="none" stroke-width="1"/></g><g transform="matrix(1,7.449445948992661e-9,-7.449445948992661e-9,1,4.368665660996823e-7,0)"><line x1="0" y1="58.144168853759766" x2="13.013662338256836" y2="58.144168853759766" fill-opacity="0" stroke-opacity="0.5799999833106995" stroke="#D8D8D8" fill="none" stroke-width="1"/></g><g transform="matrix(1,7.449445948992661e-9,-7.449445948992661e-9,1,4.925317541301641e-7,0)"><line x1="0" y1="65.61656188964844" x2="18.92896270751953" y2="65.61656188964844" fill-opacity="0" stroke-opacity="0.5799999833106995" stroke="#D8D8D8" fill="none" stroke-width="1"/></g><g transform="matrix(1,7.449445948992661e-9,-7.449445948992661e-9,1,5.56149119998538e-7,0)"><line x1="0" y1="74.15644073486328" x2="13.013662338256836" y2="74.15644073486328" fill-opacity="0" stroke-opacity="0.5799999833106995" stroke="#D8D8D8" fill="none" stroke-width="1"/></g><g transform="matrix(1,7.449445948992661e-9,-7.449445948992661e-9,1,6.118142796116387e-7,0)"><line x1="0" y1="81.62882995605469" x2="13.013662338256836" y2="81.62882995605469" fill-opacity="0" stroke-opacity="0.5799999833106995" stroke="#D8D8D8" fill="none" stroke-width="1"/></g><g transform="matrix(1,7.449445948992661e-9,-7.449445948992661e-9,1,6.674794960595016e-7,0)"><line x1="0" y1="89.10122680664062" x2="13.013662338256836" y2="89.10122680664062" fill-opacity="0" stroke-opacity="0.5799999833106995" stroke="#D8D8D8" fill="none" stroke-width="1"/></g><g transform="matrix(1,7.449445948992661e-9,-7.449445948992661e-9,1,7.231446556726024e-7,0)"><line x1="0" y1="96.57361602783203" x2="13.013662338256836" y2="96.57361602783203" fill-opacity="0" stroke-opacity="0.5799999833106995" stroke="#D8D8D8" fill="none" stroke-width="1"/></g><g transform="matrix(1,7.449445948992661e-9,-7.449445948992661e-9,1,7.788098152857031e-7,0)"><line x1="0" y1="104.04600524902344" x2="18.92896270751953" y2="104.04600524902344" fill-opacity="0" stroke-opacity="0.5799999833106995" stroke="#D8D8D8" fill="none" stroke-width="1"/></g><g transform="matrix(1,7.449445948992661e-9,-7.449445948992661e-9,1,8.344750317335661e-7,0)"><line x1="0" y1="111.51840209960938" x2="13.013662338256836" y2="111.51840209960938" fill-opacity="0" stroke-opacity="0.5799999833106995" stroke="#D8D8D8" fill="none" stroke-width="1"/></g><g transform="matrix(1,7.449445948992661e-9,-7.449445948992661e-9,1,8.901401913466668e-7,0)"><line x1="0" y1="118.99079132080078" x2="13.013662338256836" y2="118.99079132080078" fill-opacity="0" stroke-opacity="0.5799999833106995" stroke="#D8D8D8" fill="none" stroke-width="1"/></g><g transform="matrix(1,1.1174169145533597e-8,-1.1174169145533597e-8,1,0.0000014187081398832856,0)"><line x1="0" y1="126.46318817138672" x2="13.013662338256836" y2="126.46318817138672" fill-opacity="0" stroke-opacity="0.5799999833106995" stroke="#D8D8D8" fill="none" stroke-width="1"/></g><g transform="matrix(1,1.1174169145533597e-8,-1.1174169145533597e-8,1,0.0000015022058809621404,0)"><line x1="0" y1="133.93557739257812" x2="13.013662338256836" y2="133.93557739257812" fill-opacity="0" stroke-opacity="0.5799999833106995" stroke="#D8D8D8" fill="none" stroke-width="1"/></g><g transform="matrix(1,1.4898891897985322e-8,-1.4898891897985322e-8,1,0.000002114271567710987,0)"><line x1="0" y1="141.40797424316406" x2="18.92896270751953" y2="141.40797424316406" fill-opacity="0" stroke-opacity="0.5799999833106995" stroke="#D8D8D8" fill="none" stroke-width="1"/></g><g transform="matrix(1,1.4898891897985322e-8,-1.4898891897985322e-8,1,0.000002225601773267664,0)"><line x1="0" y1="148.88035583496094" x2="13.013662338256836" y2="148.88035583496094" fill-opacity="0" stroke-opacity="0.5799999833106995" stroke="#D8D8D8" fill="none" stroke-width="1"/></g><g transform="matrix(1,1.4898891897985322e-8,-1.4898891897985322e-8,1,0.0000023210277936528437,0)"><line x1="0" y1="155.28526306152344" x2="13.013662338256836" y2="155.28526306152344" fill-opacity="0" stroke-opacity="0.5799999833106995" stroke="#D8D8D8" fill="none" stroke-width="1"/></g><g transform="matrix(1,1.4898891897985322e-8,-1.4898891897985322e-8,1,0.0000024164538140380233,0)"><line x1="0" y1="161.69017028808594" x2="13.013662338256836" y2="161.69017028808594" fill-opacity="0" stroke-opacity="0.5799999833106995" stroke="#D8D8D8" fill="none" stroke-width="1"/></g></g></svg>