<?xml version="1.0" standalone="no"?><!DOCTYPE svg PUBLIC "-//W3C//DTD SVG 1.1//EN" "http://www.w3.org/Graphics/SVG/1.1/DTD/svg11.dtd"><svg t="1712586745672" class="icon" viewBox="0 0 1097 1024" version="1.1" xmlns="http://www.w3.org/2000/svg" p-id="5348" xmlns:xlink="http://www.w3.org/1999/xlink" width="214.2578125" height="200"><path d="M836.802829 503.343836c-143.171483 0-260.297178 117.138057-260.297178 260.297178s117.125695 260.297178 260.297178 260.297178S1097.100007 906.787774 1097.100007 763.653376s-117.125695-260.30954-260.297178-260.30954z m147.943041 408.277304a208.465195 208.465195 0 1 1 61.597609-147.918318 208.452833 208.452833 0 0 1-61.597609 147.918318zM356.247536 468.212309a42.808051 42.808051 0 0 0 73.081489 30.273438L839.423478 88.378933a42.830302 42.830302 0 0 0-60.5716-60.571599L368.782149 437.93887a42.820412 42.820412 0 0 0-12.534613 30.273439z" p-id="5349" fill="#105645"></path><path d="M110.957281 803.383401a47.134594 47.134594 0 0 1-47.085147-47.085148v-645.272959a47.134594 47.134594 0 0 1 47.085147-47.146955h322.63648a31.942248 31.942248 0 1 0 0-63.872134h-322.63648A111.093258 111.093258 0 0 0 0 110.963487v645.334766a111.080897 111.080897 0 0 0 110.957281 110.957281h450.615616a675.447504 675.447504 0 0 0-24.982694-63.872133zM803.389557 433.637051v49.594542c21.249506-1.396855 42.758605-2.274525 63.884495-0.135977v-49.446204a31.942248 31.942248 0 0 0-63.884495 0zM920.268021 684.440557l-116.544702 116.544703-50.385682-50.410405a19.803205 19.803205 0 0 0-28.011274 27.998913l64.378957 64.366596a19.778481 19.778481 0 0 0 27.97419 0l130.5627-130.525617a19.780954 19.780954 0 0 0-27.974189-27.97419z" p-id="5350" fill="#105645"></path></svg>