<?xml version="1.0" standalone="no"?><!DOCTYPE svg PUBLIC "-//W3C//DTD SVG 1.1//EN" "http://www.w3.org/Graphics/SVG/1.1/DTD/svg11.dtd"><svg t="1710509012166" class="icon" viewBox="0 0 1024 1024" version="1.1" xmlns="http://www.w3.org/2000/svg" p-id="7908" data-spm-anchor-id="a313x.search_index.0.i2.33273a81vuS6zp" xmlns:xlink="http://www.w3.org/1999/xlink" width="200" height="200"><path d="M512 34.133333C249.173333 34.133333 34.133333 249.173333 34.133333 512s215.04 477.866667 477.866667 477.866667 477.866667-215.04 477.866667-477.866667S774.826667 34.133333 512 34.133333z m228.693333 399.36l-204.8 204.8c-6.826667 6.826667-15.36 10.24-23.893333 10.24s-17.066667-3.413333-23.893333-10.24l-204.8-204.8c-13.653333-13.653333-13.653333-34.133333 0-47.786666 13.653333-13.653333 35.84-13.653333 47.786666 0L512 566.613333l180.906667-180.906666c13.653333-13.653333 34.133333-13.653333 47.786666 0 13.653333 13.653333 13.653333 34.133333 0 47.786666z" fill="#DCE8E3" p-id="7909" data-spm-anchor-id="a313x.search_index.0.i3.33273a81vuS6zp" class="selected"></path></svg>