<?xml version="1.0" standalone="no"?><!DOCTYPE svg PUBLIC "-//W3C//DTD SVG 1.1//EN" "http://www.w3.org/Graphics/SVG/1.1/DTD/svg11.dtd"><svg t="1709904033354" class="icon" viewBox="0 0 1024 1024" version="1.1" xmlns="http://www.w3.org/2000/svg" p-id="2764" id="mx_n_1709904033356" xmlns:xlink="http://www.w3.org/1999/xlink" width="200" height="200"><path d="M529.801116 279.6977a200.8 200.8 0 1 0 400.99745-21.991007 200.8 200.8 0 1 0-400.99745 21.991007Z" fill="#282727" p-id="2765"></path><path d="M514.8 344.5l-422 461.7 164.4 149.9 422.9-463.4c-87.4-30.4-130.5-71.2-165.3-148.2zM433.9 634l-26.7-24.4 55-60.4 26.7 24.4-55 60.4z" fill="#282727" p-id="2766"></path><path d="M901.9 373.2c4.5-7.3 8.5-14.9 12-22.7-17.6 5.3-35.8 8.4-54.2 9.5-128.2 7-237.9-91.2-244.9-219.4-0.7-12.2-0.4-24.5 0.9-36.7-7 4.9-13.7 10.2-20.1 16-0.2 7.2-0.2 14.4 0.3 21.7 7.6 138.7 126.2 245 264.9 237.4 13.8-0.9 27.5-2.8 41.1-5.8z" fill="#0B988F" p-id="2767" data-spm-anchor-id="a313x.search_index.0.i3.7f983a81zhYgyT" class="selected"></path></svg>